HIERARCHY
ROOT Hips
{
	OFFSET 0.000000 97.167313 0.000000
	CHANNELS 6 Xposition Yposition Zposition Xrotation Yrotation Zrotation
	JOINT Spine
	{
		OFFSET 0.000000 13.784798 0.064400
		CHANNELS 3 Xrotation Yrotation Zrotation
		JOINT Spine1
		{
			OFFSET 0.000000 12.037903 0.404700
			CHANNELS 3 Xrotation Yrotation Zrotation
			JOINT Spine2
			{
				OFFSET 0.000000 17.795601 0.420200
				CHANNELS 3 Xrotation Yrotation Zrotation
				JOINT Neck
				{
					OFFSET 0.000000 39.131302 11.954600
					CHANNELS 3 Xrotation Yrotation Zrotation
					JOINT Head
					{
						OFFSET 0.000000 14.456192 15.627699
						CHANNELS 3 Xrotation Yrotation Zrotation
						JOINT HeadTop_End
						{
							OFFSET 0.000000 15.703506 7.603401
							CHANNELS 3 Xrotation Yrotation Zrotation
							End Site
							{
								OFFSET 0.000000 17.447403 0.000000
							}
						}
					}
				}
				JOINT LeftShoulder
				{
					OFFSET 17.399500 24.608795 1.168800
					CHANNELS 3 Xrotation Yrotation Zrotation
					JOINT LeftArm
					{
						OFFSET 18.980635 5.765305 1.818600
						CHANNELS 3 Xrotation Yrotation Zrotation
						JOINT LeftForeArm
						{
							OFFSET 49.290169 0.000000 0.000000
							CHANNELS 3 Xrotation Yrotation Zrotation
							JOINT LeftHand
							{
								OFFSET 31.562012 0.000000 0.000000
								CHANNELS 3 Xrotation Yrotation Zrotation
								JOINT LeftHandThumb1
								{
									OFFSET 6.133995 -4.388519 7.076070
									CHANNELS 3 Xrotation Yrotation Zrotation
									JOINT LeftHandThumb2
									{
										OFFSET 6.037666 -3.485840 3.485847
										CHANNELS 3 Xrotation Yrotation Zrotation
										JOINT LeftHandThumb3
										{
											OFFSET 6.496506 -3.750763 3.750761
											CHANNELS 3 Xrotation Yrotation Zrotation
											JOINT LeftHandThumb4
											{
												OFFSET 5.616882 -3.242905 3.242910
												CHANNELS 3 Xrotation Yrotation Zrotation
												End Site
												{
													OFFSET -1.254608 7.132141 0.375429
												}
											}
										}
									}
								}
								JOINT LeftHandPinky1
								{
									OFFSET 18.920792 -0.453171 -11.426712
									CHANNELS 3 Xrotation Yrotation Zrotation
									JOINT LeftHandPinky2
									{
										OFFSET 4.919586 0.000000 0.000000
										CHANNELS 3 Xrotation Yrotation Zrotation
										JOINT LeftHandPinky3
										{
											OFFSET 5.233047 0.000000 0.000000
											CHANNELS 3 Xrotation Yrotation Zrotation
											JOINT LeftHandPinky4
											{
												OFFSET 5.571716 0.000000 0.000000
												CHANNELS 3 Xrotation Yrotation Zrotation
												End Site
												{
													OFFSET -3.459808 4.342407 -0.466164
												}
											}
										}
									}
								}
								JOINT LeftHandRing1
								{
									OFFSET 22.726120 -0.094986 -6.500475
									CHANNELS 3 Xrotation Yrotation Zrotation
									JOINT LeftHandRing2
									{
										OFFSET 6.408615 0.000000 0.000000
										CHANNELS 3 Xrotation Yrotation Zrotation
										JOINT LeftHandRing3
										{
											OFFSET 6.150223 0.000000 0.000000
											CHANNELS 3 Xrotation Yrotation Zrotation
											JOINT LeftHandRing4
											{
												OFFSET 6.145386 0.000000 0.000000
												CHANNELS 3 Xrotation Yrotation Zrotation
												End Site
												{
													OFFSET -3.671402 4.923981 -0.202372
												}
											}
										}
									}
								}
								JOINT LeftHandMiddle1
								{
									OFFSET 23.373947 0.000000 0.000001
									CHANNELS 3 Xrotation Yrotation Zrotation
									JOINT LeftHandMiddle2
									{
										OFFSET 6.996567 0.000000 0.000000
										CHANNELS 3 Xrotation Yrotation Zrotation
										JOINT LeftHandMiddle3
										{
											OFFSET 7.015945 0.000000 0.000000
											CHANNELS 3 Xrotation Yrotation Zrotation
											JOINT LeftHandMiddle4
											{
												OFFSET 7.721573 0.000000 0.000000
												CHANNELS 3 Xrotation Yrotation Zrotation
												End Site
												{
													OFFSET -4.651108 6.158463 0.251582
												}
											}
										}
									}
								}
								JOINT LeftHandIndex1
								{
									OFFSET 21.310577 -0.490082 6.209344
									CHANNELS 3 Xrotation Yrotation Zrotation
									JOINT LeftHandIndex2
									{
										OFFSET 7.536453 0.000000 0.000000
										CHANNELS 3 Xrotation Yrotation Zrotation
										JOINT LeftHandIndex3
										{
											OFFSET 7.512344 0.000000 0.000000
											CHANNELS 3 Xrotation Yrotation Zrotation
											JOINT LeftHandIndex4
											{
												OFFSET 10.212402 0.000000 0.000001
												CHANNELS 3 Xrotation Yrotation Zrotation
												End Site
												{
													OFFSET -5.180801 8.690506 1.388433
												}
											}
										}
									}
								}
							}
						}
					}
				}
				JOINT RightShoulder
				{
					OFFSET -17.399500 24.608795 1.168800
					CHANNELS 3 Xrotation Yrotation Zrotation
					JOINT RightArm
					{
						OFFSET -18.980635 5.765305 1.818600
						CHANNELS 3 Xrotation Yrotation Zrotation
						JOINT RightForeArm
						{
							OFFSET -49.290169 0.000000 0.000000
							CHANNELS 3 Xrotation Yrotation Zrotation
							JOINT RightHand
							{
								OFFSET -31.562012 0.000000 0.000000
								CHANNELS 3 Xrotation Yrotation Zrotation
								JOINT RightHandThumb1
								{
									OFFSET -6.133995 -4.388519 7.076070
									CHANNELS 3 Xrotation Yrotation Zrotation
									JOINT RightHandThumb2
									{
										OFFSET -6.037666 -3.485840 3.485847
										CHANNELS 3 Xrotation Yrotation Zrotation
										JOINT RightHandThumb3
										{
											OFFSET -6.496506 -3.750763 3.750761
											CHANNELS 3 Xrotation Yrotation Zrotation
											JOINT RightHandThumb4
											{
												OFFSET -5.616882 -3.242905 3.242910
												CHANNELS 3 Xrotation Yrotation Zrotation
												End Site
												{
													OFFSET 1.254608 7.132141 0.375429
												}
											}
										}
									}
								}
								JOINT RightHandIndex1
								{
									OFFSET -21.310577 -0.490082 6.209344
									CHANNELS 3 Xrotation Yrotation Zrotation
									JOINT RightHandIndex2
									{
										OFFSET -7.536453 0.000000 0.000000
										CHANNELS 3 Xrotation Yrotation Zrotation
										JOINT RightHandIndex3
										{
											OFFSET -7.512344 0.000000 0.000000
											CHANNELS 3 Xrotation Yrotation Zrotation
											JOINT RightHandIndex4
											{
												OFFSET -10.212402 0.000000 0.000001
												CHANNELS 3 Xrotation Yrotation Zrotation
												End Site
												{
													OFFSET 5.180801 8.690506 1.388433
												}
											}
										}
									}
								}
								JOINT RightHandMiddle1
								{
									OFFSET -23.373947 0.000000 0.000001
									CHANNELS 3 Xrotation Yrotation Zrotation
									JOINT RightHandMiddle2
									{
										OFFSET -6.996567 0.000000 0.000000
										CHANNELS 3 Xrotation Yrotation Zrotation
										JOINT RightHandMiddle3
										{
											OFFSET -7.015945 0.000000 0.000000
											CHANNELS 3 Xrotation Yrotation Zrotation
											JOINT RightHandMiddle4
											{
												OFFSET -7.721573 0.000000 0.000000
												CHANNELS 3 Xrotation Yrotation Zrotation
												End Site
												{
													OFFSET 4.651108 6.158463 0.251582
												}
											}
										}
									}
								}
								JOINT RightHandRing1
								{
									OFFSET -22.726120 -0.094986 -6.500475
									CHANNELS 3 Xrotation Yrotation Zrotation
									JOINT RightHandRing2
									{
										OFFSET -6.408615 0.000000 0.000000
										CHANNELS 3 Xrotation Yrotation Zrotation
										JOINT RightHandRing3
										{
											OFFSET -6.150223 0.000000 0.000000
											CHANNELS 3 Xrotation Yrotation Zrotation
											JOINT RightHandRing4
											{
												OFFSET -6.145386 0.000000 0.000000
												CHANNELS 3 Xrotation Yrotation Zrotation
												End Site
												{
													OFFSET 3.671402 4.923981 -0.202372
												}
											}
										}
									}
								}
								JOINT RightHandPinky1
								{
									OFFSET -18.920792 -0.453171 -11.426712
									CHANNELS 3 Xrotation Yrotation Zrotation
									JOINT RightHandPinky2
									{
										OFFSET -4.919586 0.000000 0.000000
										CHANNELS 3 Xrotation Yrotation Zrotation
										JOINT RightHandPinky3
										{
											OFFSET -5.233047 0.000000 0.000000
											CHANNELS 3 Xrotation Yrotation Zrotation
											JOINT RightHandPinky4
											{
												OFFSET -5.571716 0.000000 0.000000
												CHANNELS 3 Xrotation Yrotation Zrotation
												End Site
												{
													OFFSET 3.459808 4.342407 -0.466164
												}
											}
										}
									}
								}
							}
						}
					}
				}
			}
		}
	}
	JOINT LeftUpLeg
	{
		OFFSET 19.899099 -7.885101 -3.429500
		CHANNELS 3 Xrotation Yrotation Zrotation
		JOINT LeftLeg
		{
			OFFSET 1.745560 -36.997807 10.304700
			CHANNELS 3 Xrotation Yrotation Zrotation
			JOINT LeftFoot
			{
				OFFSET -1.745558 -29.803308 -13.615400
				CHANNELS 3 Xrotation Yrotation Zrotation
				JOINT LeftToeBase
				{
					OFFSET 1.181900 -18.539904 15.226099
					CHANNELS 3 Xrotation Yrotation Zrotation
					JOINT LeftToe_End
					{
						OFFSET -0.863701 1.402801 16.534700
						CHANNELS 3 Xrotation Yrotation Zrotation
						End Site
						{
							OFFSET 0.000000 16.616566 0.000000
						}
					}
				}
			}
		}
	}
	JOINT RightUpLeg
	{
		OFFSET -19.899099 -7.885101 -3.429500
		CHANNELS 3 Xrotation Yrotation Zrotation
		JOINT RightLeg
		{
			OFFSET -1.745560 -36.997807 10.304700
			CHANNELS 3 Xrotation Yrotation Zrotation
			JOINT RightFoot
			{
				OFFSET 1.745558 -29.803308 -13.615400
				CHANNELS 3 Xrotation Yrotation Zrotation
				JOINT RightToeBase
				{
					OFFSET -1.181900 -18.539904 15.226099
					CHANNELS 3 Xrotation Yrotation Zrotation
					JOINT RightToe_End
					{
						OFFSET 0.863701 1.402801 16.534700
						CHANNELS 3 Xrotation Yrotation Zrotation
						End Site
						{
							OFFSET 0.000000 16.616566 0.000000
						}
					}
				}
			}
		}
	}
}
MOTION
Frames: 4
Frame Time: 0.033333
-0.467495 72.008255 0.691651 -5.399176 -46.316612 -0.344608 9.440926 7.291878 -1.527984 2.187715 0.989897 -0.915630 2.202831 0.982772 -0.894152 0.084652 13.220559 4.538678 8.920927 20.138145 -4.130235 -0.000000 -0.000000 -0.000001 1.117175 3.546355 -8.633310 -53.487017 4.935498 -51.502997 0.000110 -106.358087 0.000097 1.988606 -7.706141 -15.869243 -6.141232 -11.690811 -6.761703 9.914156 42.595505 3.409843 -0.422811 8.108081 27.509113 -0.000001 0.000002 -0.000003 -3.762441 9.063683 -45.253825 5.342527 5.829002 -85.005290 8.716841 5.103345 -119.369181 0.000003 0.000001 -0.000000 0.469715 4.966823 -39.799427 8.181043 5.368600 -113.502991 3.200503 5.218120 -63.022996 -0.000000 -0.000001 0.000003 -0.461474 3.841581 -39.722673 6.450758 5.820356 -95.892857 2.182891 4.561568 -51.127743 0.000000 -0.000001 0.000001 0.255310 3.378203 -45.814341 5.654109 5.847770 -88.067448 2.162144 4.544800 -50.866379 -0.000000 0.000001 0.000001 3.036128 13.027201 -5.371407 -48.713712 27.172828 83.457064 -0.000079 105.988294 0.000093 -8.345373 17.548102 8.775687 -7.341094 13.749651 7.412310 9.855801 -44.489093 -3.903260 -0.115785 -14.513071 -28.973874 0.000003 0.000000 0.000003 -0.124378 -2.384777 45.108881 4.500589 -4.654544 88.071137 1.723222 -3.618368 50.920133 -0.000002 -0.000001 -0.000001 -0.761622 -2.932913 39.031051 5.133891 -4.632763 95.881649 1.739737 -3.631695 51.181377 0.000002 0.000000 -0.000001 0.154756 -4.068822 39.122664 6.509744 -4.273585 113.462863 2.549586 -4.153910 63.067317 0.000002 -0.000002 -0.000005 -4.198876 -8.025501 44.637783 4.252917 -4.639626 85.014839 6.935975 -4.062639 119.322298 -0.000001 -0.000002 0.000002 -33.569301 4.026725 22.749344 57.659275 -10.178576 2.632255 -21.484111 -5.744473 -18.032944 -1.594044 0.000012 -0.000004 -0.000000 -0.000002 -0.000000 -13.809867 -10.723382 -37.478918 58.013967 0.789457 -2.915703 -32.477529 -13.075732 26.173080 -0.013014 0.000013 -0.000008 0.000000 -0.000000 -0.000000 
-0.559403 72.209427 0.776138 -6.093187 -45.991639 -0.847282 9.188544 6.775463 -1.599784 2.898731 0.918392 -1.176520 2.913187 0.909190 -1.153727 0.070571 12.409895 4.291694 9.023528 20.695833 -4.160595 -0.000001 -0.000001 -0.000000 0.803611 3.293304 -7.335383 -51.305885 5.161264 -52.053777 0.000040 -107.440959 0.000030 0.456299 -8.276632 -15.963971 -6.141230 -11.690811 -6.761699 9.914157 42.595505 3.409846 -0.422807 8.108086 27.509113 -0.000002 -0.000002 -0.000001 -3.762445 9.063683 -45.253825 5.342524 5.828996 -85.005290 8.716846 5.103344 -119.369194 -0.000000 -0.000001 -0.000006 0.469712 4.966829 -39.799427 8.181047 5.368598 -113.502998 3.200503 5.218124 -63.022996 0.000002 0.000002 0.000005 -0.461471 3.841585 -39.722673 6.450758 5.820354 -95.892857 2.182889 4.561564 -51.127743 -0.000000 -0.000001 0.000002 0.255307 3.378203 -45.814344 5.654106 5.847766 -88.067455 2.162141 4.544804 -50.866376 -0.000000 0.000001 0.000001 3.630702 13.556373 -4.154607 -48.448352 28.155512 80.957242 0.000080 106.723106 -0.000078 -11.514224 17.310209 9.306442 -7.341094 13.749651 7.412313 9.855802 -44.489089 -3.903255 -0.115791 -14.513076 -28.973874 0.000000 -0.000002 0.000002 -0.124375 -2.384778 45.108881 4.500590 -4.654548 88.071143 1.723223 -3.618373 50.920136 -0.000001 -0.000001 -0.000002 -0.761619 -2.932908 39.031055 5.133889 -4.632763 95.881649 1.739739 -3.631698 51.181374 -0.000000 0.000002 -0.000004 0.154755 -4.068822 39.122671 6.509738 -4.273588 113.462863 2.549586 -4.153913 63.067317 -0.000000 -0.000001 -0.000002 -4.198878 -8.025506 44.637786 4.252916 -4.639631 85.014832 6.935980 -4.062640 119.322298 0.000002 0.000001 0.000006 -32.808342 4.075173 22.211507 57.363938 -9.972187 3.367577 -21.724926 -5.696219 -18.412126 -1.538179 -0.000031 0.000005 -0.000000 0.000001 0.000000 -12.887203 -10.998249 -37.075380 57.873962 0.495613 -3.001623 -32.691324 -13.268711 25.505345 -0.541738 0.000022 0.000003 0.000000 0.000000 -0.000001 
-0.614330 72.615112 0.792267 -5.638419 -45.171190 -0.784941 8.882845 6.186733 -1.740854 3.552811 0.780479 -1.458037 3.567741 0.766078 -1.437915 -0.464372 11.407697 4.277098 7.924621 21.091307 -3.923977 0.000001 0.000000 0.000001 0.108786 3.608987 -5.312926 -51.510944 5.150285 -50.941238 0.000016 -108.146312 0.000006 -1.682814 -9.224549 -15.480834 -6.141235 -11.690811 -6.761695 9.914157 42.595501 3.409838 -0.422810 8.108083 27.509118 0.000000 0.000002 0.000002 -3.762440 9.063680 -45.253825 5.342529 5.828996 -85.005290 8.716844 5.103347 -119.369181 0.000000 0.000000 -0.000002 0.469714 4.966826 -39.799427 8.181045 5.368600 -113.502998 3.200504 5.218121 -63.022996 -0.000001 -0.000001 -0.000002 -0.461471 3.841585 -39.722673 6.450758 5.820353 -95.892857 2.182889 4.561564 -51.127746 0.000000 0.000000 0.000006 0.255313 3.378203 -45.814341 5.654107 5.847765 -88.067455 2.162143 4.544804 -50.866376 -0.000002 0.000001 0.000001 4.269213 14.092475 -3.076351 -48.805270 29.198536 78.323910 0.000049 107.708450 -0.000038 -13.319804 16.445260 9.622160 -7.341092 13.749652 7.412315 9.855800 -44.489089 -3.903258 -0.115787 -14.513073 -28.973878 -0.000003 -0.000002 0.000003 -0.124377 -2.384778 45.108874 4.500590 -4.654542 88.071143 1.723219 -3.618369 50.920139 -0.000000 0.000002 0.000001 -0.761622 -2.932908 39.031048 5.133889 -4.632762 95.881649 1.739739 -3.631697 51.181374 0.000001 0.000000 -0.000008 0.154756 -4.068819 39.122668 6.509741 -4.273586 113.462870 2.549582 -4.153913 63.067317 -0.000002 -0.000001 -0.000005 -4.198877 -8.025500 44.637779 4.252913 -4.639627 85.014832 6.935975 -4.062638 119.322298 -0.000001 -0.000001 0.000002 -33.344123 3.488215 21.527319 56.861759 -9.930477 4.128198 -20.838885 -5.583549 -18.636989 -1.695691 -0.000020 -0.000001 -0.000000 -0.000001 -0.000000 -12.101938 -10.873876 -35.919716 57.368145 0.816321 -2.397122 -32.241515 -14.510547 24.116126 -1.523444 -0.000008 0.000008 0.000000 0.000000 -0.000000 
-0.482217 73.317421 0.653934 -3.313942 -44.083359 0.044776 8.698941 5.684574 -1.872721 4.285262 0.755640 -1.688157 4.301000 0.734388 -1.669896 -1.764153 10.144565 4.544921 2.388011 21.618992 -2.808877 -0.000000 0.000000 -0.000000 -0.883332 4.201532 -2.445917 -52.992549 4.881067 -50.121240 0.000001 -108.404268 -0.000017 -4.228923 -10.244575 -14.445001 -6.141228 -11.690812 -6.761706 9.914165 42.595505 3.409838 -0.422811 8.108086 27.509115 0.000001 0.000002 0.000002 -3.762441 9.063682 -45.253825 5.342524 5.829001 -85.005290 8.716845 5.103347 -119.369194 -0.000001 -0.000001 -0.000004 0.469714 4.966827 -39.799434 8.181047 5.368600 -113.502991 3.200505 5.218123 -63.022996 -0.000001 0.000001 0.000002 -0.461475 3.841585 -39.722673 6.450756 5.820354 -95.892857 2.182891 4.561567 -51.127743 -0.000001 0.000001 0.000007 0.255309 3.378205 -45.814344 5.654108 5.847767 -88.067455 2.162145 4.544803 -50.866376 -0.000000 0.000003 0.000002 5.034842 14.988512 -2.755779 -50.836237 30.164468 75.043043 -0.000027 109.108693 0.000051 -13.872022 15.211016 10.141339 -7.341093 13.749645 7.412312 9.855797 -44.489096 -3.903255 -0.115791 -14.513075 -28.973878 -0.000002 0.000000 -0.000001 -0.124377 -2.384784 45.108878 4.500591 -4.654543 88.071143 1.723222 -3.618370 50.920129 -0.000000 0.000001 -0.000001 -0.761620 -2.932909 39.031055 5.133887 -4.632760 95.881649 1.739740 -3.631695 51.181374 0.000001 0.000002 -0.000008 0.154757 -4.068821 39.122671 6.509742 -4.273584 113.462863 2.549586 -4.153911 63.067324 -0.000000 -0.000001 -0.000007 -4.198877 -8.025508 44.637786 4.252916 -4.639628 85.014839 6.935976 -4.062637 119.322298 -0.000000 -0.000002 0.000005 -36.055018 2.028042 20.740525 56.484285 -9.138059 5.110107 -18.336633 -5.706188 -18.583690 -3.355156 0.000014 -0.000002 0.000000 -0.000002 0.000000 -12.526262 -10.210601 -34.230866 56.143492 1.386424 -0.978368 -30.258144 -15.783983 22.796579 -3.155704 0.000003 -0.000004 0.000000 0.000001 -0.000000 
